<svg width="70" height="70" viewBox="1 -60 70 70" fill="#808080"
  xmlns="http://www.w3.org/2000/svg">
  <path d="M36.0000-3.4560L36.0000-3.4560Q34.4880-3.4560 33.4440-4.5000Q32.4000-5.5440 32.4000-7.0560L32.4000-7.0560L32.4000-43.3440Q32.4000-44.8560 33.4440-45.9000Q34.4880-46.9440 36.0000-46.9440Q37.5120-46.9440 38.5560-45.9000Q39.6000-44.8560 39.6000-43.3440L39.6000-43.3440L39.6000-7.0560Q39.6000-5.5440 38.5560-4.5000Q37.5120-3.4560 36.0000-3.4560ZM28.0800-17.2800L28.0800-17.2800L28.0800-33.1200Q28.0800-34.6320 27.0360-35.6760Q25.9920-36.7200 24.4800-36.7200Q22.9680-36.7200 21.9240-35.6760Q20.8800-34.6320 20.8800-33.1200L20.8800-33.1200L20.8800-17.2800Q20.8800-15.7680 21.9240-14.7240Q22.9680-13.6800 24.4800-13.6800Q25.9920-13.6800 27.0360-14.7240Q28.0800-15.7680 28.0800-17.2800ZM51.1200-17.2800L51.1200-17.2800L51.1200-33.1200Q51.1200-34.6320 50.0760-35.6760Q49.0320-36.7200 47.5200-36.7200Q46.0080-36.7200 44.9640-35.6760Q43.9200-34.6320 43.9200-33.1200L43.9200-33.1200L43.9200-17.2800Q43.9200-15.7680 44.9640-14.7240Q46.0080-13.6800 47.5200-13.6800Q49.0320-13.6800 50.0760-14.7240Q51.1200-15.7680 51.1200-17.2800ZM36.0000-53.2800L36.0000-53.2800Q28.3680-53.2800 21.8160-49.4640L21.8160-49.4640Q15.4800-45.7200 11.7360-39.3840L11.7360-39.3840Q7.9200-32.8320 7.9200-25.2000Q7.9200-17.5680 11.7360-11.0160L11.7360-11.0160Q15.4800-4.6800 21.8160-0.9360L21.8160-0.9360Q28.3680 2.8800 36.0000 2.8800Q43.6320 2.8800 50.1840-0.9360L50.1840-0.9360Q56.5200-4.6800 60.2640-11.0160L60.2640-11.0160Q64.0800-17.5680 64.0800-25.2000Q64.0800-32.8320 60.2640-39.3840L60.2640-39.3840Q56.5200-45.7200 50.1840-49.4640L50.1840-49.4640Q43.6320-53.2800 36.0000-53.2800ZM36.0000-59.0400L36.0000-59.0400Q42.9840-59.0400 49.1040-56.4120Q55.2240-53.7840 59.9040-49.1040L59.9040-49.1040Q64.5120-44.6400 67.1760-38.4120Q69.8400-32.1840 69.8400-25.2000Q69.8400-18.2160 67.2120-12.0960Q64.5840-5.9760 59.9040-1.2960L59.9040-1.2960Q55.4400 3.3120 49.2120 5.9760Q42.9840 8.6400 36.0000 8.6400Q29.0160 8.6400 22.8960 6.0120Q16.7760 3.3840 12.0960-1.2960L12.0960-1.2960Q7.4880-5.7600 4.8240-11.9880Q2.1600-18.2160 2.1600-25.2000Q2.1600-32.1840 4.7880-38.3040Q7.4160-44.4240 12.0960-49.1040L12.0960-49.1040Q16.5600-53.7120 22.7880-56.3760Q29.0160-59.0400 36.0000-59.0400L36.0000-59.0400Z"/>
</svg>