<svg width="70" height="70" viewBox="1 -60 70 70" fill="#808080"
  xmlns="http://www.w3.org/2000/svg">
  <path d="M36.0000-46.8000L36.0000-46.8000Q30.0960-46.8000 25.0560-43.8480L25.0560-43.8480Q20.2320-40.9680 17.3520-36.1440L17.3520-36.1440Q14.4000-31.1040 14.4000-25.2000Q14.4000-19.2960 17.3520-14.2560L17.3520-14.2560Q20.2320-9.4320 25.0560-6.5520L25.0560-6.5520Q30.0960-3.6000 36.0000-3.6000Q41.9040-3.6000 46.9440-6.5520L46.9440-6.5520Q51.7680-9.4320 54.6480-14.2560L54.6480-14.2560Q57.6000-19.2960 57.6000-25.2000Q57.6000-31.1040 54.6480-36.1440L54.6480-36.1440Q51.7680-40.9680 46.9440-43.8480L46.9440-43.8480Q41.9040-46.8000 36.0000-46.8000ZM21.6000-25.2000L21.6000-25.2000Q21.6000-30.1680 24.6600-34.0560Q27.7200-37.9440 32.4000-39.1680L32.4000-39.1680L32.4000-11.2320Q27.7200-12.4560 24.6600-16.3440Q21.6000-20.2320 21.6000-25.2000ZM39.6000-11.2320L39.6000-11.2320L39.6000-39.1680Q44.2800-37.9440 47.3400-34.0560Q50.4000-30.1680 50.4000-25.2000Q50.4000-20.2320 47.3400-16.3440Q44.2800-12.4560 39.6000-11.2320ZM36.0000-53.2800L36.0000-53.2800Q43.6320-53.2800 50.1840-49.4640L50.1840-49.4640Q56.5200-45.7200 60.2640-39.3840L60.2640-39.3840Q64.0800-32.8320 64.0800-25.2000Q64.0800-17.5680 60.2640-11.0160L60.2640-11.0160Q56.5200-4.6800 50.1840-0.9360L50.1840-0.9360Q43.6320 2.8800 36.0000 2.8800Q28.3680 2.8800 21.8160-0.9360L21.8160-0.9360Q15.4800-4.6800 11.7360-11.0160L11.7360-11.0160Q7.9200-17.5680 7.9200-25.2000Q7.9200-32.8320 11.7360-39.3840L11.7360-39.3840Q15.4800-45.7200 21.8160-49.4640L21.8160-49.4640Q28.3680-53.2800 36.0000-53.2800ZM36.0000-59.0400L36.0000-59.0400Q29.0160-59.0400 22.8960-56.4120Q16.7760-53.7840 12.0960-49.1040L12.0960-49.1040Q7.4880-44.6400 4.8240-38.4120Q2.1600-32.1840 2.1600-25.2000Q2.1600-18.2160 4.7880-12.0960Q7.4160-5.9760 12.0960-1.2960L12.0960-1.2960Q16.5600 3.3120 22.7880 5.9760Q29.0160 8.6400 36.0000 8.6400Q42.9840 8.6400 49.1040 6.0120Q55.2240 3.3840 59.9040-1.2960L59.9040-1.2960Q64.5120-5.7600 67.1760-11.9880Q69.8400-18.2160 69.8400-25.2000Q69.8400-32.1840 67.2120-38.3040Q64.5840-44.4240 59.9040-49.1040L59.9040-49.1040Q55.4400-53.7120 49.2120-56.3760Q42.9840-59.0400 36.0000-59.0400L36.0000-59.0400Z"/>
</svg>