<svg width="70" height="70" viewBox="1 -60 70 70" fill="#808080"
  xmlns="http://www.w3.org/2000/svg">
  <path d="M36.0000-53.2800L36.0000-53.2800Q43.6320-53.2800 50.1840-49.4640L50.1840-49.4640Q56.5200-45.7200 60.2640-39.3840L60.2640-39.3840Q64.0800-32.8320 64.0800-25.2000Q64.0800-17.5680 60.2640-11.0160L60.2640-11.0160Q56.5200-4.6800 50.1840-0.9360L50.1840-0.9360Q43.6320 2.8800 36.0000 2.8800Q28.3680 2.8800 21.8160-0.9360L21.8160-0.9360Q15.4800-4.6800 11.7360-11.0160L11.7360-11.0160Q7.9200-17.5680 7.9200-25.2000Q7.9200-32.8320 11.7360-39.3840L11.7360-39.3840Q15.4800-45.7200 21.8160-49.4640L21.8160-49.4640Q28.3680-53.2800 36.0000-53.2800ZM36.0000-59.0400L36.0000-59.0400Q29.0160-59.0400 22.8960-56.4120Q16.7760-53.7840 12.0960-49.1040L12.0960-49.1040Q7.4880-44.6400 4.8240-38.4120Q2.1600-32.1840 2.1600-25.2000Q2.1600-18.2160 4.7880-12.0960Q7.4160-5.9760 12.0960-1.2960L12.0960-1.2960Q16.5600 3.3120 22.7880 5.9760Q29.0160 8.6400 36.0000 8.6400Q42.9840 8.6400 49.1040 6.0120Q55.2240 3.3840 59.9040-1.2960L59.9040-1.2960Q64.5120-5.7600 67.1760-11.9880Q69.8400-18.2160 69.8400-25.2000Q69.8400-32.1840 67.2120-38.3040Q64.5840-44.4240 59.9040-49.1040L59.9040-49.1040Q55.4400-53.7120 49.2120-56.3760Q42.9840-59.0400 36.0000-59.0400L36.0000-59.0400ZM36.0000-42.3360L36.0000-42.3360Q31.3920-42.3360 27.4320-40.0320Q23.4720-37.7280 21.1680-33.7680Q18.8640-29.8080 18.8640-25.2000Q18.8640-20.5920 21.1680-16.6320Q23.4720-12.6720 27.4320-10.3680Q31.3920-8.0640 36.0000-8.0640Q40.6080-8.0640 44.5680-10.3680Q48.5280-12.6720 50.8320-16.6320Q53.1360-20.5920 53.1360-25.2000Q53.1360-29.8080 50.8320-33.7680Q48.5280-37.7280 44.5680-40.0320Q40.6080-42.3360 36.0000-42.3360Z"/>
</svg>