<svg width="70" height="70" viewBox="1 -60 70 70" fill="#808080"
  xmlns="http://www.w3.org/2000/svg">
  <path d="M36.0000-53.2800L36.0000-53.2800Q43.6320-53.2800 50.1840-49.4640L50.1840-49.4640Q56.5200-45.7200 60.2640-39.3840L60.2640-39.3840Q64.0800-32.8320 64.0800-25.2000Q64.0800-17.5680 60.2640-11.0160L60.2640-11.0160Q56.5200-4.6800 50.1840-0.9360L50.1840-0.9360Q43.6320 2.8800 36.0000 2.8800Q28.3680 2.8800 21.8160-0.9360L21.8160-0.9360Q15.4800-4.6800 11.7360-11.0160L11.7360-11.0160Q7.9200-17.5680 7.9200-25.2000Q7.9200-32.8320 11.7360-39.3840L11.7360-39.3840Q15.4800-45.7200 21.8160-49.4640L21.8160-49.4640Q28.3680-53.2800 36.0000-53.2800ZM36.0000-59.0400L36.0000-59.0400Q29.0160-59.0400 22.8960-56.4120Q16.7760-53.7840 12.0960-49.1040L12.0960-49.1040Q7.4880-44.6400 4.8240-38.4120Q2.1600-32.1840 2.1600-25.2000Q2.1600-18.2160 4.7880-12.0960Q7.4160-5.9760 12.0960-1.2960L12.0960-1.2960Q16.5600 3.3120 22.7880 5.9760Q29.0160 8.6400 36.0000 8.6400Q42.9840 8.6400 49.1040 6.0120Q55.2240 3.3840 59.9040-1.2960L59.9040-1.2960Q64.5120-5.7600 67.1760-11.9880Q69.8400-18.2160 69.8400-25.2000Q69.8400-32.1840 67.2120-38.3040Q64.5840-44.4240 59.9040-49.1040L59.9040-49.1040Q55.4400-53.7120 49.2120-56.3760Q42.9840-59.0400 36.0000-59.0400L36.0000-59.0400ZM49.8240-25.2000L49.8240-25.2000Q49.8240-27.4320 48.2400-29.0160Q46.6560-30.6000 44.4240-30.6000Q42.1920-30.6000 40.6080-29.0160Q39.0240-27.4320 39.0240-25.2000Q39.0240-22.9680 40.6080-21.3840Q42.1920-19.8000 44.4240-19.8000Q46.6560-19.8000 48.2400-21.3840Q49.8240-22.9680 49.8240-25.2000ZM37.2960-36.1440L37.2960-36.1440Q37.2960-38.3760 35.7120-39.9600Q34.1280-41.5440 31.8960-41.5440Q29.6640-41.5440 28.0800-39.9600Q26.4960-38.3760 26.4960-36.1440Q26.4960-33.9120 28.0800-32.3280Q29.6640-30.7440 31.8960-30.7440Q34.1280-30.7440 35.7120-32.3280Q37.2960-33.9120 37.2960-36.1440ZM37.2960-14.2560L37.2960-14.2560Q37.2960-16.4880 35.7120-18.0720Q34.1280-19.6560 31.8960-19.6560Q29.6640-19.6560 28.0800-18.0720Q26.4960-16.4880 26.4960-14.2560Q26.4960-12.0240 28.0800-10.4400Q29.6640-8.8560 31.9320-8.8560Q34.2000-8.8560 35.7480-10.4400Q37.2960-12.0240 37.2960-14.2560Z"/>
</svg>